HIERARCHY
ROOT newVegas:Hips
{
	OFFSET 0.000000 96.479958 0.000000
	CHANNELS 6 Xposition Yposition Zposition Xrotation Yrotation Zrotation
	JOINT newVegas:Pelvis
	{
		OFFSET 0.000000 0.000000 0.000000
		CHANNELS 3 Xrotation Yrotation Zrotation
		JOINT newVegas:LeftUpLeg
		{
			OFFSET 18.735201 -5.666702 -4.541200
			CHANNELS 3 Xrotation Yrotation Zrotation
			JOINT newVegas:LeftLeg
			{
				OFFSET -0.021200 -31.938179 0.493100
				CHANNELS 3 Xrotation Yrotation Zrotation
				JOINT newVegas:LeftFoot
				{
					OFFSET 0.021200 -31.938179 -4.336299
					CHANNELS 3 Xrotation Yrotation Zrotation
					JOINT newVegas:LeftToeBase
					{
						OFFSET 0.943001 -26.722000 15.023500
						CHANNELS 3 Xrotation Yrotation Zrotation
						End Site
						{
							OFFSET 0.000000 30.670183 0.000000
						}
					}
				}
				JOINT newVegas:Left_PantLeg
				{
					OFFSET 0.663870 -9.044666 -1.108900
					CHANNELS 3 Xrotation Yrotation Zrotation
					End Site
					{
						OFFSET 1.415995 20.635357 0.000000
					}
				}
			}
		}
		JOINT newVegas:RightUpLeg
		{
			OFFSET -18.735201 -5.666702 -4.541200
			CHANNELS 3 Xrotation Yrotation Zrotation
			JOINT newVegas:RightLeg
			{
				OFFSET 0.018946 -31.938133 0.493100
				CHANNELS 3 Xrotation Yrotation Zrotation
				JOINT newVegas:RightFoot
				{
					OFFSET -0.018946 -31.938126 -4.336299
					CHANNELS 3 Xrotation Yrotation Zrotation
					JOINT newVegas:RightToeBase
					{
						OFFSET -0.943001 -26.722004 15.023500
						CHANNELS 3 Xrotation Yrotation Zrotation
						End Site
						{
							OFFSET 0.000000 30.670187 0.000000
						}
					}
				}
				JOINT newVegas:Right_PantLeg
				{
					OFFSET -0.661674 -9.044716 -1.108900
					CHANNELS 3 Xrotation Yrotation Zrotation
					End Site
					{
						OFFSET -1.415958 20.635269 0.000000
					}
				}
			}
		}
	}
	JOINT newVegas:Spine
	{
		OFFSET 0.000000 10.199997 -0.299500
		CHANNELS 3 Xrotation Yrotation Zrotation
		JOINT newVegas:Spine1
		{
			OFFSET 0.000000 11.900002 -1.516600
			CHANNELS 3 Xrotation Yrotation Zrotation
			JOINT newVegas:Spine2
			{
				OFFSET 0.000000 13.600006 -2.842500
				CHANNELS 3 Xrotation Yrotation Zrotation
				JOINT newVegas:Neck
				{
					OFFSET 0.000000 9.624100 -2.890100
					CHANNELS 3 Xrotation Yrotation Zrotation
					JOINT newVegas:Head
					{
						OFFSET 0.000000 14.068802 -1.351900
						CHANNELS 3 Xrotation Yrotation Zrotation
						JOINT newVegas:Hair_Back
						{
							OFFSET 0.000000 3.231903 -17.524799
							CHANNELS 3 Xrotation Yrotation Zrotation
							End Site
							{
								OFFSET 0.000000 19.849884 0.000000
							}
						}
						JOINT newVegas:Hair_Front
						{
							OFFSET 0.000000 31.260406 4.573800
							CHANNELS 3 Xrotation Yrotation Zrotation
							JOINT newVegas:Hair_Front1
							{
								OFFSET 0.000000 2.284103 11.993300
								CHANNELS 3 Xrotation Yrotation Zrotation
								JOINT newVegas:Hair_Front2
								{
									OFFSET 0.000000 2.284103 11.993300
									CHANNELS 3 Xrotation Yrotation Zrotation
									End Site
									{
										OFFSET 0.000000 12.208862 0.000000
									}
								}
							}
						}
						JOINT newVegas:Jowel
						{
							OFFSET 0.000000 -7.458206 6.864100
							CHANNELS 3 Xrotation Yrotation Zrotation
							End Site
							{
								OFFSET 0.000000 19.849884 0.000000
							}
						}
					}
				}
				JOINT newVegas:LeftShoulder
				{
					OFFSET 15.263000 10.923401 -0.547700
					CHANNELS 3 Xrotation Yrotation Zrotation
					JOINT newVegas:LeftArm
					{
						OFFSET 25.438599 -2.830597 -13.032500
						CHANNELS 3 Xrotation Yrotation Zrotation
						JOINT newVegas:LeftForeArm
						{
							OFFSET 29.960503 0.000000 0.000000
							CHANNELS 3 Xrotation Yrotation Zrotation
							JOINT newVegas:LeftHand
							{
								OFFSET 27.849251 0.000000 0.000000
								CHANNELS 3 Xrotation Yrotation Zrotation
								JOINT newVegas:LeftHandThumb1
								{
									OFFSET 4.487587 -3.305161 6.305391
									CHANNELS 3 Xrotation Yrotation Zrotation
									JOINT newVegas:LeftHandThumb2
									{
										OFFSET 5.480453 -3.164139 3.164143
										CHANNELS 3 Xrotation Yrotation Zrotation
										JOINT newVegas:LeftHandThumb3
										{
											OFFSET 5.159721 -2.978973 2.978967
											CHANNELS 3 Xrotation Yrotation Zrotation
											End Site
											{
												OFFSET 2.494507 5.926697 1.738678
											}
										}
									}
								}
								JOINT newVegas:LeftHandIndex1
								{
									OFFSET 18.578728 -0.527832 5.208049
									CHANNELS 3 Xrotation Yrotation Zrotation
									JOINT newVegas:LeftHandIndex2
									{
										OFFSET 3.192009 0.000000 0.000000
										CHANNELS 3 Xrotation Yrotation Zrotation
										JOINT newVegas:LeftHandIndex3
										{
											OFFSET 3.835129 0.000000 0.000000
											CHANNELS 3 Xrotation Yrotation Zrotation
											End Site
											{
												OFFSET -0.034599 3.816971 0.371180
											}
										}
									}
								}
								JOINT newVegas:LeftHandMiddle1
								{
									OFFSET 18.476105 0.000000 0.000000
									CHANNELS 3 Xrotation Yrotation Zrotation
									JOINT newVegas:LeftHandMiddle2
									{
										OFFSET 3.324875 0.000000 0.000000
										CHANNELS 3 Xrotation Yrotation Zrotation
										JOINT newVegas:LeftHandMiddle3
										{
											OFFSET 4.596550 0.000000 0.000000
											CHANNELS 3 Xrotation Yrotation Zrotation
											End Site
											{
												OFFSET 0.057701 4.578827 0.399218
											}
										}
									}
								}
								JOINT newVegas:LeftHandRing1
								{
									OFFSET 17.732719 0.121887 -4.201567
									CHANNELS 3 Xrotation Yrotation Zrotation
									JOINT newVegas:LeftHandRing2
									{
										OFFSET 2.733170 0.000000 0.000000
										CHANNELS 3 Xrotation Yrotation Zrotation
										JOINT newVegas:LeftHandRing3
										{
											OFFSET 3.178268 0.000000 0.000000
											CHANNELS 3 Xrotation Yrotation Zrotation
											End Site
											{
												OFFSET 0.119102 3.170624 0.185394
											}
										}
									}
								}
								JOINT newVegas:LeftHandPinky1
								{
									OFFSET 15.989624 -0.606689 -7.535461
									CHANNELS 3 Xrotation Yrotation Zrotation
									JOINT newVegas:LeftHandPinky2
									{
										OFFSET 2.538986 0.000000 0.000000
										CHANNELS 3 Xrotation Yrotation Zrotation
										JOINT newVegas:LeftHandPinky3
										{
											OFFSET 2.593102 0.000000 0.000000
											CHANNELS 3 Xrotation Yrotation Zrotation
											End Site
											{
												OFFSET -0.150902 2.584198 0.152708
											}
										}
									}
								}
							}
							JOINT newVegas:Left_Sleeve
							{
								OFFSET 0.267448 -0.649796 0.577675
								CHANNELS 3 Xrotation Yrotation Zrotation
								End Site
								{
									OFFSET 0.000000 15.991241 0.000000
								}
							}
							JOINT newVegas:Left_CapeC
							{
								OFFSET 15.715958 -8.608795 -6.935905
								CHANNELS 3 Xrotation Yrotation Zrotation
								JOINT newVegas:Left_CapeC1
								{
									OFFSET 0.000000 -8.688499 0.000000
									CHANNELS 3 Xrotation Yrotation Zrotation
									End Site
									{
										OFFSET 0.000000 8.688499 0.000000
									}
								}
							}
						}
						JOINT newVegas:Left_CapeB
						{
							OFFSET 26.118385 -8.608795 -7.079235
							CHANNELS 3 Xrotation Yrotation Zrotation
							JOINT newVegas:Left_CapeB1
							{
								OFFSET 0.000000 -8.688499 0.000000
								CHANNELS 3 Xrotation Yrotation Zrotation
								End Site
								{
									OFFSET 0.000000 8.688499 0.000000
								}
							}
						}
						JOINT newVegas:Left_CapeA
						{
							OFFSET 5.115639 -8.608795 -10.395809
							CHANNELS 3 Xrotation Yrotation Zrotation
							JOINT newVegas:Left_CapeA1
							{
								OFFSET 0.000000 -8.688499 0.000000
								CHANNELS 3 Xrotation Yrotation Zrotation
								End Site
								{
									OFFSET 0.000000 8.688499 0.000000
								}
							}
						}
					}
				}
				JOINT newVegas:RightShoulder
				{
					OFFSET -15.263000 10.923401 -0.547700
					CHANNELS 3 Xrotation Yrotation Zrotation
					JOINT newVegas:RightArm
					{
						OFFSET -25.438599 -2.830597 -13.032500
						CHANNELS 3 Xrotation Yrotation Zrotation
						JOINT newVegas:RightForeArm
						{
							OFFSET -29.960503 0.000000 0.000000
							CHANNELS 3 Xrotation Yrotation Zrotation
							JOINT newVegas:RightHand
							{
								OFFSET -27.849251 0.000000 0.000000
								CHANNELS 3 Xrotation Yrotation Zrotation
								JOINT newVegas:RightHandThumb1
								{
									OFFSET -4.487587 -3.305161 6.305391
									CHANNELS 3 Xrotation Yrotation Zrotation
									JOINT newVegas:RightHandThumb2
									{
										OFFSET -5.480453 -3.164139 3.164143
										CHANNELS 3 Xrotation Yrotation Zrotation
										JOINT newVegas:RightHandThumb3
										{
											OFFSET -5.159721 -2.978973 2.978967
											CHANNELS 3 Xrotation Yrotation Zrotation
											End Site
											{
												OFFSET -2.494507 5.926697 1.738678
											}
										}
									}
								}
								JOINT newVegas:RightHandIndex1
								{
									OFFSET -18.578728 -0.527832 5.208049
									CHANNELS 3 Xrotation Yrotation Zrotation
									JOINT newVegas:RightHandIndex2
									{
										OFFSET -3.192009 0.000000 0.000000
										CHANNELS 3 Xrotation Yrotation Zrotation
										JOINT newVegas:RightHandIndex3
										{
											OFFSET -3.835129 0.000000 0.000000
											CHANNELS 3 Xrotation Yrotation Zrotation
											End Site
											{
												OFFSET 0.034599 3.816971 0.371180
											}
										}
									}
								}
								JOINT newVegas:RightHandMiddle1
								{
									OFFSET -18.476105 0.000000 0.000000
									CHANNELS 3 Xrotation Yrotation Zrotation
									JOINT newVegas:RightHandMiddle2
									{
										OFFSET -3.324875 0.000000 0.000000
										CHANNELS 3 Xrotation Yrotation Zrotation
										JOINT newVegas:RightHandMiddle3
										{
											OFFSET -4.596550 0.000000 0.000000
											CHANNELS 3 Xrotation Yrotation Zrotation
											End Site
											{
												OFFSET -0.057701 4.578827 0.399218
											}
										}
									}
								}
								JOINT newVegas:RightHandRing1
								{
									OFFSET -17.732719 0.121887 -4.201567
									CHANNELS 3 Xrotation Yrotation Zrotation
									JOINT newVegas:RightHandRing2
									{
										OFFSET -2.733170 0.000000 0.000000
										CHANNELS 3 Xrotation Yrotation Zrotation
										JOINT newVegas:RightHandRing3
										{
											OFFSET -3.178268 0.000000 0.000000
											CHANNELS 3 Xrotation Yrotation Zrotation
											End Site
											{
												OFFSET -0.119102 3.170624 0.185394
											}
										}
									}
								}
								JOINT newVegas:RightHandPinky1
								{
									OFFSET -15.989624 -0.606689 -7.535461
									CHANNELS 3 Xrotation Yrotation Zrotation
									JOINT newVegas:RightHandPinky2
									{
										OFFSET -2.538986 0.000000 0.000000
										CHANNELS 3 Xrotation Yrotation Zrotation
										JOINT newVegas:RightHandPinky3
										{
											OFFSET -2.593102 0.000000 0.000000
											CHANNELS 3 Xrotation Yrotation Zrotation
											End Site
											{
												OFFSET 0.150902 2.584198 0.152708
											}
										}
									}
								}
							}
							JOINT newVegas:Right_CapeC
							{
								OFFSET -15.715958 -8.608795 -6.935905
								CHANNELS 3 Xrotation Yrotation Zrotation
								JOINT newVegas:Right_CapeC1
								{
									OFFSET 0.000000 -8.688499 0.000000
									CHANNELS 3 Xrotation Yrotation Zrotation
									End Site
									{
										OFFSET 0.000000 8.688499 0.000000
									}
								}
							}
							JOINT newVegas:Right_Sleeve
							{
								OFFSET -0.267448 -0.649994 0.577675
								CHANNELS 3 Xrotation Yrotation Zrotation
								End Site
								{
									OFFSET 0.000000 15.991302 0.000000
								}
							}
						}
						JOINT newVegas:Right_CapeA
						{
							OFFSET -5.115540 -8.608795 -10.395824
							CHANNELS 3 Xrotation Yrotation Zrotation
							JOINT newVegas:Right_CapeA1
							{
								OFFSET 0.000000 -8.688499 0.000000
								CHANNELS 3 Xrotation Yrotation Zrotation
								End Site
								{
									OFFSET 0.000000 8.688499 0.000000
								}
							}
						}
						JOINT newVegas:Right_CapeB
						{
							OFFSET -26.118187 -8.608795 -7.079266
							CHANNELS 3 Xrotation Yrotation Zrotation
							JOINT newVegas:Right_CapeB1
							{
								OFFSET 0.000000 -8.688499 0.000000
								CHANNELS 3 Xrotation Yrotation Zrotation
								End Site
								{
									OFFSET 0.000000 8.688499 0.000000
								}
							}
						}
					}
				}
				JOINT newVegas:Left_Collar
				{
					OFFSET 18.625099 8.655502 8.828100
					CHANNELS 3 Xrotation Yrotation Zrotation
					JOINT newVegas:Left_Collar1
					{
						OFFSET 14.783401 10.540405 -1.259500
						CHANNELS 3 Xrotation Yrotation Zrotation
						End Site
						{
							OFFSET 0.000000 18.199875 0.000000
						}
					}
				}
				JOINT newVegas:Collar_Back
				{
					OFFSET 0.000000 15.630707 -20.132601
					CHANNELS 3 Xrotation Yrotation Zrotation
					End Site
					{
						OFFSET 0.000000 22.523010 0.000000
					}
				}
				JOINT newVegas:Left_Peck
				{
					OFFSET 17.239599 -5.132599 25.482599
					CHANNELS 3 Xrotation Yrotation Zrotation
					End Site
					{
						OFFSET 0.000000 22.523010 0.000000
					}
				}
				JOINT newVegas:Right_Peck
				{
					OFFSET -17.239599 -5.132202 25.482599
					CHANNELS 3 Xrotation Yrotation Zrotation
					End Site
					{
						OFFSET 0.000000 22.523010 0.000000
					}
				}
				JOINT newVegas:Right_Collar
				{
					OFFSET -18.625099 8.655792 8.828100
					CHANNELS 3 Xrotation Yrotation Zrotation
					JOINT newVegas:Right_Collar1
					{
						OFFSET -14.783401 10.539993 -1.259500
						CHANNELS 3 Xrotation Yrotation Zrotation
						End Site
						{
							OFFSET 0.000000 18.199631 0.000000
						}
					}
				}
			}
		}
		JOINT newVegas:Belly
		{
			OFFSET 0.000000 -6.540398 9.014299
			CHANNELS 3 Xrotation Yrotation Zrotation
			End Site
			{
				OFFSET 0.000000 11.566666 0.000000
			}
		}
	}
	JOINT newVegas:ElvisFacialAnim_Joint
	{
		OFFSET 1.000000 -95.330101 -8.825800
		CHANNELS 3 Xrotation Yrotation Zrotation
		End Site
		{
			OFFSET 0.000000 35.315800 0.000000
		}
	}
}
MOTION
Frames: 4
Frame Time: 0.016667
-0.331529 94.695076 4.074327 2.827924 -5.519556 -1.305907 -0.000000 0.000000 -0.000000 -18.093552 16.154466 13.419653 23.574166 9.266053 5.143335 -7.065235 4.252220 -13.807288 0.000000 -0.000000 -0.000000 0.000000 -0.000001 0.000000 -17.162616 -20.600127 -7.239150 21.458552 10.019033 -3.389145 -8.047493 0.715987 5.515331 -0.000000 0.000002 -0.000000 -0.000001 0.000002 -0.000001 -0.411648 -1.018122 1.159563 -1.124193 -0.763623 0.960462 -1.125714 -0.723788 0.985440 -1.959656 0.611591 -0.195579 -1.959656 0.611587 -0.195579 -0.000001 -0.000000 0.000000 -1.959657 0.611587 -0.195579 -1.959661 0.611592 -0.195580 0.000001 0.000000 -0.000000 -0.000001 -0.000000 0.000000 -1.469254 10.517228 -4.984829 43.879662 -68.213687 -24.791763 0.000009 -21.268111 -0.000001 -25.251740 7.009040 0.097461 -3.405744 19.076288 14.453263 15.249465 14.620669 -5.800666 -0.000000 -0.000000 -0.000008 0.380314 2.260839 -19.095162 0.158434 1.471495 -12.290083 0.000002 -0.000001 0.000000 0.379694 2.259004 -19.079145 0.158844 1.473380 -12.306090 0.000001 0.000000 0.000001 0.380318 2.260826 -19.095168 0.158443 1.471501 -12.290075 -0.000002 -0.000001 0.000002 1.696010 6.096992 -18.680660 0.153595 -2.584202 -12.789157 0.000001 0.000000 -0.000002 0.000000 -0.000001 0.000003 0.000000 -0.000001 0.000003 0.000000 -0.000001 0.000003 0.000001 -0.000001 0.000001 0.000001 -0.000001 0.000001 0.000001 -0.000001 0.000001 0.000001 -0.000001 0.000001 3.669364 5.665988 1.464133 -1.701518 36.578661 65.584959 -0.000005 22.959770 0.000012 -19.091371 -11.054767 9.870836 1.944069 -20.994856 -11.060305 4.637196 -8.634128 -0.225386 -0.000004 -0.000002 -0.000001 0.194546 -1.636477 13.558119 0.162598 -1.497879 12.390187 0.000000 0.000001 0.000002 0.194549 -1.636475 13.558123 0.162603 -1.497876 12.390170 0.000002 -0.000001 -0.000002 0.194545 -1.636476 13.558118 0.162603 -1.497881 12.390189 0.000002 -0.000001 -0.000001 0.194543 -1.636483 13.558127 0.162596 -1.497874 12.390176 -0.000001 0.000002 -0.000003 0.000002 0.000003 -0.000002 0.000004 0.000001 -0.000000 0.000002 0.000002 -0.000002 0.000001 -0.000001 -0.000001 0.000001 -0.000001 -0.000000 0.000001 -0.000001 -0.000001 0.000001 -0.000001 -0.000000 0.000000 0.000001 0.000000 0.000000 0.000001 0.000000 0.000000 0.000001 0.000000 0.000000 0.000001 0.000000 0.000000 0.000001 0.000000 0.000000 0.000001 0.000000 0.000000 0.000001 0.000000 -0.000000 -0.000000 0.000000 -0.000000 0.000000 -0.000000 
-0.307853 94.696800 4.066883 2.805417 -5.478700 -1.284329 0.000000 0.000000 -0.000000 -18.072790 16.152856 13.395347 23.568394 9.259594 5.090807 -7.061269 4.219714 -13.752768 0.000000 0.000000 0.000000 -0.000000 0.000002 -0.000000 -17.179772 -20.621709 -7.309446 21.502906 10.019459 -3.380810 -8.068472 0.718714 5.525652 -0.000000 0.000000 0.000000 0.000000 -0.000001 0.000000 -0.421247 -1.058329 1.157061 -1.133012 -0.794374 0.957289 -1.134493 -0.754701 0.983290 -1.966257 0.619845 -0.187580 -1.966256 0.619842 -0.187580 -0.000000 0.000000 -0.000000 -1.966257 0.619847 -0.187580 -1.966263 0.619841 -0.187580 -0.000001 -0.000000 -0.000000 -0.000000 0.000000 -0.000000 -1.470419 10.513381 -4.967265 43.640169 -68.242817 -25.097595 -0.000012 -21.297112 -0.000003 -25.352233 7.076683 0.079879 -3.405739 19.076288 14.453266 15.249463 14.620672 -5.800662 -0.000001 -0.000001 -0.000004 0.380326 2.260833 -19.095158 0.158428 1.471495 -12.290081 0.000003 -0.000002 0.000000 0.379695 2.259001 -19.079141 0.158846 1.473382 -12.306087 0.000001 0.000002 0.000001 0.380323 2.260825 -19.095162 0.158445 1.471502 -12.290077 -0.000002 -0.000004 0.000001 1.696011 6.096993 -18.680661 0.153601 -2.584195 -12.789162 -0.000003 0.000000 -0.000001 0.000001 0.000000 -0.000001 0.000001 0.000000 -0.000001 0.000001 -0.000000 -0.000001 -0.000001 -0.000001 0.000001 -0.000000 -0.000001 0.000001 -0.000001 -0.000001 0.000001 0.000000 -0.000002 0.000001 3.665457 5.656877 1.475269 -1.703466 36.697544 65.596727 -0.000005 22.913184 -0.000006 -18.957489 -10.909262 10.116169 1.959319 -20.982054 -11.038633 4.637184 -8.634130 -0.225389 0.000002 0.000000 0.000001 0.194542 -1.636472 13.558096 0.162601 -1.497879 12.390201 -0.000001 0.000002 0.000001 0.194545 -1.636463 13.558100 0.162598 -1.497880 12.390201 -0.000002 0.000002 -0.000000 0.194541 -1.636465 13.558101 0.162602 -1.497884 12.390187 -0.000000 -0.000001 0.000001 0.194544 -1.636484 13.558089 0.162599 -1.497872 12.390215 -0.000001 -0.000004 -0.000001 -0.000001 -0.000003 0.000000 -0.000005 -0.000001 -0.000001 -0.000001 -0.000003 -0.000000 0.000002 0.000000 -0.000000 0.000003 0.000000 -0.000000 0.000002 0.000000 -0.000000 0.000003 -0.000000 -0.000000 -0.000000 0.000001 -0.000000 -0.000000 0.000001 -0.000000 -0.000000 0.000001 -0.000000 -0.000000 0.000001 -0.000000 -0.000000 0.000001 -0.000000 -0.000000 0.000001 -0.000000 -0.000000 0.000001 -0.000000 -0.000000 0.000000 -0.000000 0.000000 0.000000 -0.000000 
-0.282561 94.697350 4.059324 2.785630 -5.440868 -1.255081 -0.000000 -0.000000 -0.000000 -18.048999 16.155875 13.358633 23.555950 9.253646 5.042824 -7.053872 4.188186 -13.697679 -0.000000 0.000000 -0.000000 -0.000001 0.000000 -0.000000 -17.216274 -20.643588 -7.394378 21.568575 10.019863 -3.373772 -8.099797 0.727472 5.537168 0.000000 -0.000002 -0.000000 -0.000000 0.000003 -0.000001 -0.426232 -1.096089 1.151940 -1.138106 -0.823449 0.951492 -1.139511 -0.784102 0.978433 -1.976230 0.629178 -0.180623 -1.976228 0.629182 -0.180623 -0.000000 0.000000 0.000000 -1.976227 0.629180 -0.180622 -1.976166 0.629181 -0.180623 0.000001 -0.000000 -0.000000 -0.000000 0.000000 0.000000 -1.471644 10.508767 -4.946810 43.432087 -68.283109 -25.363723 0.000005 -21.330126 0.000016 -25.465252 7.139510 0.050427 -3.405750 19.076288 14.453263 15.249461 14.620669 -5.800665 -0.000002 -0.000000 -0.000003 0.380318 2.260837 -19.095158 0.158438 1.471495 -12.290082 0.000002 -0.000000 -0.000001 0.379692 2.259002 -19.079140 0.158847 1.473380 -12.306092 0.000003 0.000001 -0.000000 0.380314 2.260823 -19.095163 0.158449 1.471497 -12.290078 -0.000001 -0.000001 0.000001 1.696005 6.096991 -18.680656 0.153599 -2.584201 -12.789159 0.000004 -0.000002 0.000000 0.000000 -0.000000 -0.000000 0.000000 -0.000000 -0.000000 -0.000001 -0.000000 -0.000001 0.000002 0.000002 -0.000000 0.000002 0.000001 0.000000 0.000002 0.000002 -0.000000 0.000002 0.000002 0.000000 3.663050 5.650920 1.476511 -1.717206 36.859577 65.610326 -0.000015 22.842784 0.000005 -18.751875 -10.780434 10.391282 2.004066 -20.944355 -10.974921 4.637191 -8.634131 -0.225415 0.000000 -0.000001 0.000001 0.194548 -1.636476 13.558120 0.162606 -1.497880 12.390191 0.000000 0.000001 -0.000001 0.194550 -1.636472 13.558122 0.162608 -1.497873 12.390196 -0.000001 0.000001 -0.000001 0.194548 -1.636466 13.558130 0.162602 -1.497885 12.390182 -0.000001 -0.000001 -0.000003 0.194551 -1.636481 13.558121 0.162602 -1.497879 12.390204 0.000000 -0.000000 -0.000001 -0.000001 0.000004 -0.000001 -0.000001 0.000000 0.000000 -0.000001 0.000004 -0.000001 0.000001 -0.000001 0.000002 0.000002 -0.000001 0.000002 0.000001 -0.000001 0.000002 0.000001 -0.000001 0.000002 -0.000000 0.000000 0.000000 -0.000000 0.000000 0.000000 -0.000000 0.000000 0.000000 -0.000000 0.000000 0.000000 -0.000000 0.000000 0.000000 -0.000000 0.000000 0.000000 -0.000000 0.000000 0.000000 -0.000000 -0.000000 0.000000 -0.000000 -0.000000 -0.000000 
-0.253604 94.696045 4.051782 2.774126 -5.412852 -1.213030 -0.000000 -0.000000 -0.000000 -18.021058 16.178575 13.300573 23.527140 9.249502 5.007175 -7.044072 4.153682 -13.643980 -0.000000 0.000000 0.000000 -0.000000 -0.000000 0.000002 -17.288793 -20.654711 -7.501143 21.666578 10.020068 -3.367801 -8.140669 0.740743 5.550540 0.000000 0.000000 0.000000 -0.000000 0.000000 -0.000001 -0.424724 -1.129535 1.143471 -1.138050 -0.849448 0.942093 -1.139338 -0.810645 0.969838 -1.991998 0.639403 -0.175441 -1.991984 0.639402 -0.175443 -0.000000 0.000001 -0.000000 -1.992077 0.639402 -0.175440 -1.991930 0.639405 -0.175442 0.000000 -0.000000 -0.000000 -0.000000 0.000001 -0.000000 -1.472791 10.501848 -4.921265 43.262804 -68.342258 -25.576280 -0.000006 -21.363951 -0.000034 -25.588655 7.196866 -0.002530 -3.405740 19.076288 14.453264 15.249463 14.620672 -5.800663 -0.000001 0.000000 -0.000004 0.380325 2.260837 -19.095160 0.158432 1.471495 -12.290083 0.000003 -0.000001 -0.000001 0.379695 2.259004 -19.079146 0.158845 1.473380 -12.306093 0.000002 0.000002 0.000002 0.380321 2.260824 -19.095170 0.158448 1.471499 -12.290076 -0.000003 -0.000001 0.000001 1.696010 6.096988 -18.680658 0.153597 -2.584201 -12.789160 0.000001 -0.000002 0.000001 -0.000000 0.000000 0.000001 -0.000000 0.000000 0.000001 -0.000000 -0.000000 0.000001 0.000000 -0.000001 -0.000001 0.000001 -0.000000 -0.000003 0.000000 -0.000001 -0.000001 0.000001 -0.000001 -0.000001 3.662694 5.649604 1.468053 -1.746190 37.070681 65.621589 -0.000022 22.738576 0.000035 -18.460273 -10.670042 10.687653 2.076856 -20.882762 -10.871354 4.637191 -8.634124 -0.225391 -0.000002 -0.000001 0.000001 0.194541 -1.636472 13.558120 0.162602 -1.497867 12.390209 -0.000002 0.000001 -0.000001 0.194551 -1.636468 13.558115 0.162598 -1.497864 12.390201 -0.000000 0.000001 -0.000001 0.194544 -1.636469 13.558126 0.162613 -1.497870 12.390187 -0.000002 0.000001 0.000001 0.194545 -1.636481 13.558121 0.162602 -1.497869 12.390197 -0.000002 -0.000004 0.000003 -0.000001 -0.000002 0.000001 -0.000001 -0.000002 0.000001 -0.000001 -0.000002 0.000000 -0.000002 0.000000 -0.000003 -0.000002 0.000000 -0.000003 -0.000002 0.000000 -0.000003 -0.000002 -0.000000 -0.000003 -0.000000 -0.000000 -0.000000 -0.000000 -0.000000 -0.000000 -0.000000 -0.000000 -0.000000 -0.000000 -0.000000 -0.000000 -0.000000 -0.000000 -0.000000 -0.000000 -0.000000 -0.000000 -0.000000 -0.000000 -0.000000 -0.000000 -0.000000 -0.000000 -0.000000 -0.000000 -0.000000 
